HIERARCHY
ROOT Hips
{
	OFFSET -335.845001 -574.368103 89.378365
	CHANNELS 6 Xposition Yposition Zposition Zrotation Yrotation Xrotation
	JOINT Spine
	{
		OFFSET 0.000000 2.080078 8.814247
		CHANNELS 6 Xposition Yposition Zposition Zrotation Yrotation Xrotation
		JOINT Spine1
		{
			OFFSET 0.000000 0.000000 8.844139
			CHANNELS 6 Xposition Yposition Zposition Zrotation Yrotation Xrotation
			JOINT Spine2
			{
				OFFSET 0.000000 0.000000 11.682266
				CHANNELS 6 Xposition Yposition Zposition Zrotation Yrotation Xrotation
				JOINT Spine3
				{
					OFFSET 0.000000 0.000000 11.746696
					CHANNELS 6 Xposition Yposition Zposition Zrotation Yrotation Xrotation
					JOINT Neck
					{
						OFFSET 0.000000 0.000000 17.658264
						CHANNELS 6 Xposition Yposition Zposition Zrotation Yrotation Xrotation
						JOINT Neck1
						{
							OFFSET 0.000000 0.000000 5.101517
							CHANNELS 6 Xposition Yposition Zposition Zrotation Yrotation Xrotation
							JOINT Head
							{
								OFFSET 0.000000 0.000000 5.101517
								CHANNELS 6 Xposition Yposition Zposition Zrotation Yrotation Xrotation
								JOINT HeadEnd
								{
									OFFSET 0.000000 0.000000 11.655090
									CHANNELS 6 Xposition Yposition Zposition Zrotation Yrotation Xrotation
									End Site
									{
										OFFSET 0.000000 0.000000 0.100006
									}
								}
							}
						}
					}
					JOINT RightShoulder
					{
						OFFSET -2.625397 0.000000 11.175217
						CHANNELS 6 Xposition Yposition Zposition Zrotation Yrotation Xrotation
						JOINT RightArm
						{
							OFFSET 0.000000 0.000000 10.434708
							CHANNELS 6 Xposition Yposition Zposition Zrotation Yrotation Xrotation
							JOINT RightForeArm
							{
								OFFSET 0.000000 0.000000 29.628418
								CHANNELS 6 Xposition Yposition Zposition Zrotation Yrotation Xrotation
								JOINT RightHand
								{
									OFFSET 0.000000 0.000000 22.857605
									CHANNELS 6 Xposition Yposition Zposition Zrotation Yrotation Xrotation
									JOINT RightHandThumb1
									{
										OFFSET -2.867310 -2.944275 3.959564
										CHANNELS 6 Xposition Yposition Zposition Zrotation Yrotation Xrotation
										JOINT RightHandThumb2
										{
											OFFSET 0.000000 0.000000 3.350403
											CHANNELS 6 Xposition Yposition Zposition Zrotation Yrotation Xrotation
											JOINT RightHandThumb3
											{
												OFFSET 0.000000 0.000000 3.756516
												CHANNELS 6 Xposition Yposition Zposition Zrotation Yrotation Xrotation
												JOINT RightHandThumb4
												{
													OFFSET 0.000000 0.000000 3.147339
													CHANNELS 6 Xposition Yposition Zposition Zrotation Yrotation Xrotation
													End Site
													{
														OFFSET 0.000000 0.000000 0.100006
													}
												}
											}
										}
									}
									JOINT RightHandIndex1
									{
										OFFSET -0.086761 -2.345276 10.030899
										CHANNELS 6 Xposition Yposition Zposition Zrotation Yrotation Xrotation
										JOINT RightHandIndex2
										{
											OFFSET 0.000000 0.000000 4.061096
											CHANNELS 6 Xposition Yposition Zposition Zrotation Yrotation Xrotation
											JOINT RightHandIndex3
											{
												OFFSET 0.000000 0.000000 3.248871
												CHANNELS 6 Xposition Yposition Zposition Zrotation Yrotation Xrotation
												JOINT RightHandIndex4
												{
													OFFSET 0.000000 0.000000 2.639709
													CHANNELS 6 Xposition Yposition Zposition Zrotation Yrotation Xrotation
													End Site
													{
														OFFSET 0.000000 0.000000 0.100006
													}
												}
											}
										}
									}
									JOINT RightHandMiddle1
									{
										OFFSET 0.104095 -0.006775 9.502945
										CHANNELS 6 Xposition Yposition Zposition Zrotation Yrotation Xrotation
										JOINT RightHandMiddle2
										{
											OFFSET 0.000000 0.000000 4.568726
											CHANNELS 6 Xposition Yposition Zposition Zrotation Yrotation Xrotation
											JOINT RightHandMiddle3
											{
												OFFSET 0.000000 0.000000 3.654984
												CHANNELS 6 Xposition Yposition Zposition Zrotation Yrotation Xrotation
												JOINT RightHandMiddle4
												{
													OFFSET 0.000000 0.000000 2.741241
													CHANNELS 6 Xposition Yposition Zposition Zrotation Yrotation Xrotation
													End Site
													{
														OFFSET 0.000000 0.000000 0.100006
													}
												}
											}
										}
									}
									JOINT RightHandRing1
									{
										OFFSET 0.086761 2.267456 8.921707
										CHANNELS 6 Xposition Yposition Zposition Zrotation Yrotation Xrotation
										JOINT RightHandRing2
										{
											OFFSET 0.000000 0.000000 4.061096
											CHANNELS 6 Xposition Yposition Zposition Zrotation Yrotation Xrotation
											JOINT RightHandRing3
											{
												OFFSET 0.000000 0.000000 3.654984
												CHANNELS 6 Xposition Yposition Zposition Zrotation Yrotation Xrotation
												JOINT RightHandRing4
												{
													OFFSET 0.000000 0.000000 2.741241
													CHANNELS 6 Xposition Yposition Zposition Zrotation Yrotation Xrotation
													End Site
													{
														OFFSET 0.000000 0.000000 0.100006
													}
												}
											}
										}
									}
									JOINT RightHandPinky1
									{
										OFFSET -0.173492 4.467224 7.976990
										CHANNELS 6 Xposition Yposition Zposition Zrotation Yrotation Xrotation
										JOINT RightHandPinky2
										{
											OFFSET 0.000000 0.000000 3.350403
											CHANNELS 6 Xposition Yposition Zposition Zrotation Yrotation Xrotation
											JOINT RightHandPinky3
											{
												OFFSET 0.000000 0.000000 2.842758
												CHANNELS 6 Xposition Yposition Zposition Zrotation Yrotation Xrotation
												JOINT RightHandPinky4
												{
													OFFSET 0.000000 0.000000 2.639709
													CHANNELS 6 Xposition Yposition Zposition Zrotation Yrotation Xrotation
													End Site
													{
														OFFSET 0.000000 0.000000 0.100006
													}
												}
											}
										}
									}
									JOINT RightForeArmEnd
									{
										OFFSET 0.000000 0.000000 0.000000
										CHANNELS 6 Xposition Yposition Zposition Zrotation Yrotation Xrotation
										End Site
										{
											OFFSET 0.000000 0.000000 0.100006
										}
									}
								}
								JOINT RightArmEnd
								{
									OFFSET 0.000000 0.000000 0.000000
									CHANNELS 6 Xposition Yposition Zposition Zrotation Yrotation Xrotation
									End Site
									{
										OFFSET 0.000000 0.000000 0.100006
									}
								}
							}
						}
					}
					JOINT LeftShoulder
					{
						OFFSET 2.625397 0.000000 11.175217
						CHANNELS 6 Xposition Yposition Zposition Zrotation Yrotation Xrotation
						JOINT LeftArm
						{
							OFFSET 0.000000 0.000000 10.813629
							CHANNELS 6 Xposition Yposition Zposition Zrotation Yrotation Xrotation
							JOINT LeftForeArm
							{
								OFFSET 0.000000 0.000000 28.724777
								CHANNELS 6 Xposition Yposition Zposition Zrotation Yrotation Xrotation
								JOINT LeftHand
								{
									OFFSET 0.644379 0.328857 25.716171
									CHANNELS 6 Xposition Yposition Zposition Zrotation Yrotation Xrotation
									JOINT LeftHandThumb1
									{
										OFFSET 2.867310 -2.944275 3.959564
										CHANNELS 6 Xposition Yposition Zposition Zrotation Yrotation Xrotation
										JOINT LeftHandThumb2
										{
											OFFSET 0.000000 0.000000 3.350403
											CHANNELS 6 Xposition Yposition Zposition Zrotation Yrotation Xrotation
											JOINT LeftHandThumb3
											{
												OFFSET 0.000000 0.000000 3.756516
												CHANNELS 6 Xposition Yposition Zposition Zrotation Yrotation Xrotation
												JOINT LeftHandThumb4
												{
													OFFSET 0.000000 0.000000 3.100006
													CHANNELS 6 Xposition Yposition Zposition Zrotation Yrotation Xrotation
													End Site
													{
														OFFSET 0.000000 0.000000 0.100006
													}
												}
											}
										}
									}
									JOINT LeftHandIndex1
									{
										OFFSET 0.086761 -2.345276 10.030899
										CHANNELS 6 Xposition Yposition Zposition Zrotation Yrotation Xrotation
										JOINT LeftHandIndex2
										{
											OFFSET 0.000000 0.000000 4.061096
											CHANNELS 6 Xposition Yposition Zposition Zrotation Yrotation Xrotation
											JOINT LeftHandIndex3
											{
												OFFSET 0.000000 0.000000 3.248871
												CHANNELS 6 Xposition Yposition Zposition Zrotation Yrotation Xrotation
												JOINT LeftHandIndex4
												{
													OFFSET 0.000000 0.000000 2.639709
													CHANNELS 6 Xposition Yposition Zposition Zrotation Yrotation Xrotation
													End Site
													{
														OFFSET 0.000000 0.000000 0.100006
													}
												}
											}
										}
									}
									JOINT LeftHandMiddle1
									{
										OFFSET -0.104095 -0.006775 9.502945
										CHANNELS 6 Xposition Yposition Zposition Zrotation Yrotation Xrotation
										JOINT LeftHandMiddle2
										{
											OFFSET 0.000000 0.000000 4.568726
											CHANNELS 6 Xposition Yposition Zposition Zrotation Yrotation Xrotation
											JOINT LeftHandMiddle3
											{
												OFFSET 0.000000 0.000000 3.654984
												CHANNELS 6 Xposition Yposition Zposition Zrotation Yrotation Xrotation
												JOINT LeftHandMiddle4
												{
													OFFSET 0.000000 0.000000 2.741241
													CHANNELS 6 Xposition Yposition Zposition Zrotation Yrotation Xrotation
													End Site
													{
														OFFSET 0.000000 0.000000 0.100006
													}
												}
											}
										}
									}
									JOINT LeftHandRing1
									{
										OFFSET -0.086761 2.267456 8.921707
										CHANNELS 6 Xposition Yposition Zposition Zrotation Yrotation Xrotation
										JOINT LeftHandRing2
										{
											OFFSET 0.000000 0.000000 4.061096
											CHANNELS 6 Xposition Yposition Zposition Zrotation Yrotation Xrotation
											JOINT LeftHandRing3
											{
												OFFSET 0.000000 0.000000 3.654984
												CHANNELS 6 Xposition Yposition Zposition Zrotation Yrotation Xrotation
												JOINT LeftHandRing4
												{
													OFFSET 0.000000 0.000000 2.741241
													CHANNELS 6 Xposition Yposition Zposition Zrotation Yrotation Xrotation
													End Site
													{
														OFFSET 0.000000 0.000000 0.100006
													}
												}
											}
										}
									}
									JOINT LeftHandPinky1
									{
										OFFSET 0.173492 4.467224 7.976990
										CHANNELS 6 Xposition Yposition Zposition Zrotation Yrotation Xrotation
										JOINT LeftHandPinky2
										{
											OFFSET 0.000000 0.000000 3.350403
											CHANNELS 6 Xposition Yposition Zposition Zrotation Yrotation Xrotation
											JOINT LeftHandPinky3
											{
												OFFSET 0.000000 0.000000 2.842758
												CHANNELS 6 Xposition Yposition Zposition Zrotation Yrotation Xrotation
												JOINT LeftHandPinky4
												{
													OFFSET 0.000000 0.000000 2.639709
													CHANNELS 6 Xposition Yposition Zposition Zrotation Yrotation Xrotation
													End Site
													{
														OFFSET 0.000000 0.000000 0.100006
													}
												}
											}
										}
									}
									JOINT LeftForeArmEnd
									{
										OFFSET 0.000000 0.000000 0.000000
										CHANNELS 6 Xposition Yposition Zposition Zrotation Yrotation Xrotation
										End Site
										{
											OFFSET 0.000000 0.000000 0.100006
										}
									}
								}
								JOINT LeftArmEnd
								{
									OFFSET 0.000000 0.000000 0.000000
									CHANNELS 6 Xposition Yposition Zposition Zrotation Yrotation Xrotation
									End Site
									{
										OFFSET 0.000000 0.000000 0.100006
									}
								}
							}
						}
					}
				}
			}
		}
	}
	JOINT RightUpLeg
	{
		OFFSET -11.289948 0.000000 0.000000
		CHANNELS 6 Xposition Yposition Zposition Zrotation Yrotation Xrotation
		JOINT RightLeg
		{
			OFFSET 0.000000 0.000000 -38.200329
			CHANNELS 6 Xposition Yposition Zposition Zrotation Yrotation Xrotation
			JOINT RightFoot
			{
				OFFSET 0.000000 0.000000 -39.900856
				CHANNELS 6 Xposition Yposition Zposition Zrotation Yrotation Xrotation
				JOINT RightToeBase
				{
					OFFSET 0.000000 -15.261658 0.000002
					CHANNELS 6 Xposition Yposition Zposition Zrotation Yrotation Xrotation
					JOINT RightToeBaseEnd
					{
						OFFSET 0.000000 -7.370728 0.000000
						CHANNELS 6 Xposition Yposition Zposition Zrotation Yrotation Xrotation
						End Site
						{
							OFFSET 0.000000 0.000000 0.100000
						}
					}
				}
				JOINT RightLegEnd
				{
					OFFSET 0.000000 0.000000 0.000000
					CHANNELS 6 Xposition Yposition Zposition Zrotation Yrotation Xrotation
					End Site
					{
						OFFSET 0.000000 0.000000 0.100000
					}
				}
			}
			JOINT RightUpLegEnd
			{
				OFFSET 0.000000 0.000000 0.000000
				CHANNELS 6 Xposition Yposition Zposition Zrotation Yrotation Xrotation
				End Site
				{
					OFFSET 0.000000 0.000000 0.099998
				}
			}
		}
	}
	JOINT LeftUpLeg
	{
		OFFSET 11.315674 0.000000 0.000000
		CHANNELS 6 Xposition Yposition Zposition Zrotation Yrotation Xrotation
		JOINT LeftLeg
		{
			OFFSET 0.000000 0.000000 -38.200329
			CHANNELS 6 Xposition Yposition Zposition Zrotation Yrotation Xrotation
			JOINT LeftFoot
			{
				OFFSET 0.000000 0.000000 -39.900856
				CHANNELS 6 Xposition Yposition Zposition Zrotation Yrotation Xrotation
				JOINT LeftToeBase
				{
					OFFSET 0.000000 -15.261658 0.000002
					CHANNELS 6 Xposition Yposition Zposition Zrotation Yrotation Xrotation
					JOINT LeftToeBaseEnd
					{
						OFFSET 0.000000 -7.539978 0.000000
						CHANNELS 6 Xposition Yposition Zposition Zrotation Yrotation Xrotation
						End Site
						{
							OFFSET 0.000000 0.000000 0.100000
						}
					}
				}
				JOINT LeftLegEnd
				{
					OFFSET 0.000000 0.000000 0.000000
					CHANNELS 6 Xposition Yposition Zposition Zrotation Yrotation Xrotation
					End Site
					{
						OFFSET 0.000000 0.000000 0.100000
					}
				}
			}
			JOINT LeftUpLegEnd
			{
				OFFSET 0.000000 0.000000 0.000000
				CHANNELS 6 Xposition Yposition Zposition Zrotation Yrotation Xrotation
				End Site
				{
					OFFSET 0.000000 0.000000 0.099998
				}
			}
		}
	}
}
MOTION
Frames: 2
Frame Time: 0.016667
-18.106934 -14.070374 80.459038 19.282485 4.180462 -17.538898 -0.000034 2.080105 8.814255 -0.415587 -3.886700 15.554649 0.000012 -0.000026 8.844140 0.127284 -0.154309 8.088141 -0.000012 0.000028 11.682278 0.557668 0.336971 7.888800 -0.000003 -0.000004 11.746696 0.781906 0.495178 3.989654 -0.000004 -0.000011 17.658283 -5.460860 -10.732533 -7.398116 -0.000014 0.000027 5.101522 -2.184527 -0.689012 -9.640833 0.000000 0.000002 5.101484 -0.975474 0.019050 -17.582186 0.000003 0.000001 11.655041 0.000000 -0.000001 -0.000001 -2.625404 -0.000031 11.175225 13.758513 -86.699901 0.167222 0.000055 -0.000010 10.434692 -36.157188 -54.400186 40.045563 0.000032 -0.000008 29.628426 16.547827 1.529799 78.319935 -0.000015 0.000033 22.857574 33.629710 13.307019 13.948003 -2.867294 -2.944290 3.959549 32.792052 -27.372123 37.391444 0.000000 -0.000015 3.350399 -34.922853 10.052912 -58.756846 -0.000031 0.000015 3.756500 -23.319101 10.947675 -40.180777 -0.000013 -0.000059 3.147364 0.000001 -0.000000 -0.000003 -0.086765 -2.345271 10.030840 67.018342 -110.049026 -69.408717 -0.000031 -0.000088 4.061028 -12.235438 -66.853345 19.193045 -0.000019 -0.000084 3.248840 -12.735384 -66.853352 19.192997 -0.000037 -0.000001 2.639712 0.000000 0.000000 -0.000000 0.104067 -0.006834 9.502913 64.355996 -104.933193 -62.369435 -0.000013 0.000030 4.568686 -4.327728 -67.401441 7.233352 -0.000025 -0.000029 3.654940 -4.827694 -67.401461 7.233301 -0.000028 -0.000004 2.741237 0.000000 -0.000001 0.000000 0.086754 2.267452 8.921719 18.171488 -106.848809 -9.786914 -0.000019 -0.000054 4.061092 7.761981 -73.294815 -11.759192 -0.000025 -0.000070 3.654999 8.761947 -73.294808 -11.759158 -0.000030 -0.000001 2.741211 0.000000 -0.000000 -0.000000 -0.173470 4.467138 7.976997 -7.883554 -112.276063 23.565645 0.000008 -0.000088 3.350368 25.227415 -72.039521 -36.844677 -0.000023 -0.000076 2.842731 27.227415 -72.039521 -36.844697 -0.000032 -0.000063 2.639727 0.000000 -0.000001 0.000001 0.000017 0.000001 0.000010 0.000000 0.000003 0.000001 -0.000021 -0.000006 -0.000008 0.000001 0.000003 -0.000002 2.625399 0.000031 11.175240 -11.469201 84.558008 -0.326654 -0.000023 0.000017 10.813625 35.612067 57.268892 40.712046 0.000009 0.000015 28.724874 -8.978909 0.504875 87.027224 0.644318 0.328894 25.716141 -34.681324 -32.874404 11.188008 2.867274 -2.944321 3.959549 -33.529624 29.323658 34.785064 -0.000023 -0.000061 3.350479 38.923872 -8.843077 -65.314346 -0.000076 -0.000015 3.756496 26.237400 -11.072369 -44.834875 -0.000042 -0.000008 3.100031 0.000001 0.000003 -0.000002 0.086716 -2.345297 10.030926 -5.578805 104.206810 -19.492747 -0.000008 -0.000006 4.061119 -18.799944 72.335556 -26.188040 0.000015 0.000008 3.248917 -19.299941 72.335597 -26.188019 -0.000055 -0.000008 2.639721 0.000001 0.000000 -0.000001 -0.104069 -0.006794 9.502949 -23.085539 105.947155 -29.200213 0.000025 -0.000085 4.568769 -6.927573 73.192307 -9.991303 0.000004 -0.000035 3.654972 -7.427570 73.192328 -9.991270 -0.000032 -0.000000 2.741227 -0.000000 0.000003 -0.000000 -0.086758 2.267466 8.921745 -29.507117 118.430849 -26.280966 0.000004 -0.000009 4.061131 15.706076 79.819585 19.913145 -0.000008 0.000027 3.655029 16.706127 79.819571 19.913169 -0.000032 0.000001 2.741261 -0.000000 0.000001 0.000000 0.173508 4.467199 7.976990 -39.518658 125.286734 -26.824473 0.000008 0.000000 3.350433 48.368579 77.444127 60.781512 0.000004 -0.000011 2.842808 50.368718 77.444155 60.781621 -0.000035 -0.000006 2.639707 -0.000000 0.000001 0.000001 -0.000006 -0.000005 0.000048 0.000001 0.000003 0.000000 0.000011 0.000001 0.000031 0.000000 -0.000001 -0.000000 -11.289964 -0.000017 -0.000008 -11.095469 8.308976 4.253102 0.000004 0.000048 -38.200310 -0.634018 0.654195 45.895279 -0.000006 -0.000062 -39.900864 -13.447189 -12.116452 -1.042899 0.000035 -15.261711 0.000021 2.864934 0.348088 -16.865441 0.000006 -7.370674 -0.000000 0.000001 0.000000 0.000001 0.000037 0.000000 0.000001 -0.000000 0.000001 0.000000 -0.000004 0.000061 -0.000009 0.000000 -0.000001 0.000001 11.315683 -0.000017 0.000008 -12.938238 -15.005248 -11.564969 0.000009 0.000031 -38.200306 0.953692 -1.135743 49.974367 0.000042 -0.000008 -39.900856 2.303814 9.061247 7.077391 -0.000009 -15.261679 0.000013 -1.603619 -1.171365 -21.273471 -0.000028 -7.539987 -0.000001 0.000002 0.000000 0.000000 -0.000006 0.000009 0.000000 -0.000002 -0.000000 0.000000 0.000029 0.000055 0.000002 0.000001 0.000001 -0.000000 
-17.235291 -14.361450 81.941246 19.248002 4.286027 -16.183380 0.000008 2.080048 8.814262 -0.288171 -3.922726 14.313263 -0.000011 0.000001 8.844148 0.120361 -0.202576 7.305618 0.000013 0.000002 11.682272 0.554185 0.354847 6.928549 -0.000010 -0.000002 11.746711 0.781064 0.621563 3.560444 -0.000002 0.000015 17.658257 -5.534188 -10.693925 -5.218618 -0.000007 -0.000029 5.101535 -2.197605 -0.681608 -8.475669 -0.000005 -0.000015 5.101538 -0.933372 -0.246047 -17.868892 0.000006 -0.000003 11.655085 0.000001 -0.000000 0.000000 -2.625378 -0.000012 11.175217 13.344182 -86.291995 0.135732 -0.000015 0.000006 10.434715 -30.879931 -54.490040 34.942206 -0.000009 0.000008 29.628422 16.276003 1.601288 83.003648 -0.000023 0.000061 22.857590 34.845757 13.859933 14.504803 -2.867303 -2.944305 3.959534 32.858117 -27.566920 37.131391 -0.000023 0.000000 3.350422 -35.329567 9.952397 -59.417291 -0.000008 0.000000 3.756485 -23.610285 10.970612 -40.645735 -0.000005 -0.000049 3.147358 -0.000003 -0.000000 -0.000002 -0.086741 -2.345259 10.030941 62.831375 -110.729838 -64.997289 -0.000019 -0.000040 4.061119 -13.248766 -67.938751 20.290644 -0.000038 -0.000090 3.248848 -13.748827 -67.938785 20.290723 -0.000030 -0.000001 2.639710 -0.000000 0.000000 0.000000 0.104084 -0.006821 9.502892 58.279129 -105.798517 -56.003142 -0.000027 -0.000002 4.568712 -4.778883 -68.686766 7.719741 0.000002 0.000007 3.654902 -5.278860 -68.686705 7.719739 -0.000024 0.000000 2.741229 0.000000 0.000001 0.000000 0.086769 2.267439 8.921730 15.730566 -109.035316 -7.234431 -0.000023 -0.000065 4.061043 9.013572 -74.855554 -13.060620 -0.000027 -0.000032 3.655006 10.013533 -74.855561 -13.060566 -0.000031 -0.000005 2.741231 0.000000 0.000000 0.000001 -0.173439 4.467125 7.976982 -7.549839 -114.870422 22.641367 -0.000031 -0.000076 3.350388 29.111854 -73.468459 -40.911515 0.000000 -0.000053 2.842770 31.111826 -73.468486 -40.911488 -0.000019 -0.000055 2.639731 -0.000001 0.000000 0.000001 0.000009 -0.000001 0.000018 -0.000000 0.000001 0.000000 -0.000021 0.000005 -0.000002 -0.000001 -0.000003 -0.000001 2.625381 0.000003 11.175200 -11.270273 84.266195 -0.362468 0.000002 0.000011 10.813622 30.873223 56.372416 36.411011 -0.000017 -0.000018 28.724777 -9.702812 0.534866 90.896356 0.644348 0.328865 25.716141 -33.340185 -33.671648 11.578799 2.867234 -2.944351 3.959518 -33.612887 29.519080 34.523550 -0.000008 0.000000 3.350494 39.314914 -8.697495 -65.963788 -0.000038 -0.000023 3.756504 26.529589 -11.072046 -45.300547 -0.000040 0.000018 3.100039 -0.000003 -0.000000 0.000001 0.086792 -2.345270 10.030930 -5.122435 105.159976 -19.636165 -0.000011 0.000011 4.061115 -19.882959 72.975995 -27.322614 0.000023 0.000006 3.248947 -20.382949 72.975968 -27.322601 -0.000071 0.000002 2.639719 -0.000000 0.000001 -0.000001 -0.104118 -0.006802 9.502949 -21.763191 106.778294 -28.219089 0.000027 -0.000050 4.568735 -7.331758 73.829789 -10.412804 0.000021 -0.000087 3.655003 -7.831804 73.829789 -10.412826 -0.000023 -0.000003 2.741262 -0.000000 0.000002 -0.000001 -0.086781 2.267426 8.921768 -28.686873 119.103432 -25.320298 -0.000004 0.000021 4.061150 16.836468 80.340804 21.060255 -0.000002 -0.000016 3.655014 17.836503 80.340838 21.060200 -0.000044 -0.000002 2.741249 0.000000 0.000001 -0.000000 0.173462 4.467196 7.976959 -38.870183 125.714385 -25.564710 0.000008 0.000015 3.350433 50.382180 77.676593 62.843464 0.000000 -0.000011 2.842770 52.382428 77.676620 62.843737 -0.000037 0.000004 2.639719 -0.000000 0.000000 0.000001 -0.000001 0.000000 0.000023 -0.000000 -0.000001 0.000000 -0.000018 -0.000008 0.000002 0.000001 -0.000001 -0.000000 -11.289920 0.000055 -0.000008 -10.985253 8.259668 5.646730 0.000005 0.000033 -38.200325 -0.767320 0.658043 40.613688 -0.000017 -0.000060 -39.900864 -14.234797 -11.476249 2.794939 -0.000005 -15.261720 0.000041 2.730361 0.572733 -17.461285 0.000001 -7.370610 0.000000 0.000001 0.000000 0.000000 -0.000011 -0.000009 -0.000001 0.000002 0.000000 0.000001 -0.000002 0.000002 -0.000016 -0.000000 0.000000 0.000001 11.315695 -0.000023 0.000015 -12.584944 -14.533304 -10.524437 0.000025 0.000036 -38.200340 0.996123 -1.034359 46.073977 0.000026 0.000028 -39.900856 3.011156 8.139758 9.084644 0.000002 -15.261651 0.000019 -1.552609 -1.108543 -21.640145 -0.000028 -7.539978 -0.000000 -0.000000 0.000000 0.000000 -0.000011 0.000043 -0.000001 0.000003 -0.000000 0.000002 0.000034 0.000114 -0.000004 0.000001 -0.000002 0.000002 
